# xmcd
#
# Track frame offsets:
#	150
#	12663
#	29641
#	46590
#	63075
#	80624
#	99139
#	116352
#	130609
#	144613
#	166079
#	180378
#	196377
#	208403
#	220008
#	233702
#	256735
#	271100
#	290234
#	305699
#
# Disc length: 4318 seconds
#
# Revision: 2
# Processed by: cddbd v1.5.2PL0 Copyright (c) Steve Scherf et al.
# Submitted via: EZCDAudioConverter 7.1.5.1
#
DISCID=1610dc14
DTITLE=Various Artist - Soul Galaxy: Gambling To Sweet Harmony
DYEAR=2008
DGENRE=Soul
TTITLE0=RICJMOND EXTENSION  - Let's Get Into Something
TTITLE1=FIVE SPECIAL - The More I Get To Know You (Part 1)
TTITLE2=TOMORROW'S PROMISE  - Never Take Your Love Away
TTITLE3=AMBITION  - Whisper A Love Chant
TTITLE4=VANEESE and CAROLYN  - I'm Losing You
TTITLE5=WESTWING  - Falling In Love With You
TTITLE6=MOJOBA  - Say You Will
TTITLE7=THE NEWCOMERS  - That's When You Know Your Woman Wants To Be Free
TTITLE8=THE INSIDERS  - Nighty Night
TTITLE9=RICHMOND EXTENSION  - I Can Testitfy (Good Thing Come To Those Who Wai
TTITLE9=t)
TTITLE10=THE GASLIGHT  - It's Just Like Magic
TTITLE11=THE REASON WHY   - So Long Letter (In A Picture Frame)
TTITLE12=NORTH, SOUTH, EAST and WEST  - I'm Not Like The Others
TTITLE13=CANDY and SWEETS  - I Want To Give You My Everything
TTITLE14=BRENDA LEE EAGER  - Ah! Sweet Mystery Of Life
TTITLE15=SAM DEES  - My World
TTITLE16=FIVE SPECIAL  - (Let's Stop Making) "Small Talk"
TTITLE17=PRIME CUT  - I'm So Glad
TTITLE18=TOMORROW'S PROMISE  - Should I Follow My Heart
TTITLE19=CHAPTER ONE  - Let Me Down Easy (Have It Your Way)
EXTD=
EXTT0=
EXTT1=
EXTT2=
EXTT3=
EXTT4=
EXTT5=
EXTT6=
EXTT7=
EXTT8=
EXTT9=
EXTT10=
EXTT11=
EXTT12=
EXTT13=
EXTT14=
EXTT15=
EXTT16=
EXTT17=
EXTT18=
EXTT19=
PLAYORDER=
